<?xml version="1.0" standalone="no"?>
<!DOCTYPE svg PUBLIC "-//W3C//DTD SVG 20010904//EN"
 "http://www.w3.org/TR/2001/REC-SVG-20010904/DTD/svg10.dtd">
<svg version="1.0" xmlns="http://www.w3.org/2000/svg"
 width="512.000000pt" height="512.000000pt" viewBox="0 0 512.000000 512.000000"
 preserveAspectRatio="xMidYMid meet">

<g transform="translate(0.000000,512.000000) scale(0.100000,-0.100000)"
fill="#000000" stroke="none">
<path d="M2370 5113 c-232 -22 -409 -56 -590 -115 -397 -129 -719 -325 -1019
-621 -412 -407 -661 -909 -742 -1497 -18 -125 -18 -515 0 -640 105 -762 511
-1409 1146 -1826 840 -552 1956 -550 2797 4 365 241 681 593 876 974 290 565
360 1243 191 1846 -34 121 -49 146 -100 173 -50 25 -92 24 -140 -3 -38 -21
-79 -84 -79 -121 0 -10 15 -77 34 -150 57 -218 71 -333 70 -577 0 -230 -12
-339 -61 -539 -78 -325 -246 -653 -471 -921 -296 -354 -732 -624 -1183 -733
-201 -49 -309 -61 -539 -61 -231 0 -338 12 -540 61 -449 109 -886 380 -1182
733 -580 692 -701 1645 -309 2445 227 463 584 820 1046 1046 542 264 1164 299
1740 99 131 -46 375 -168 492 -246 115 -77 299 -227 285 -232 -5 -1 -82 15
-171 38 -105 26 -171 38 -189 34 -81 -20 -122 -69 -122 -147 0 -54 18 -92 57
-121 16 -12 200 -63 484 -134 513 -128 506 -127 570 -63 64 64 65 59 -65 548
-64 241 -125 457 -136 481 -34 72 -128 102 -200 63 -40 -21 -80 -83 -80 -124
0 -16 20 -104 45 -196 25 -92 45 -171 45 -175 0 -4 -30 20 -67 54 -332 305
-814 536 -1278 614 -187 31 -461 44 -615 29z"/>
<path d="M1323 3345 c-182 -40 -373 -223 -373 -358 0 -89 59 -150 146 -150 59
0 101 29 143 98 75 123 200 158 313 86 50 -32 98 -113 98 -166 0 -54 -56 -123
-294 -365 -242 -246 -319 -338 -387 -465 -36 -67 -41 -82 -37 -124 6 -58 35
-103 82 -125 30 -14 85 -16 428 -16 388 0 393 1 432 23 94 53 101 187 13 251
-26 20 -46 21 -280 26 l-251 5 215 215 c235 235 294 305 342 407 100 214 -19
504 -253 616 -118 56 -216 68 -337 42z"/>
<path d="M3382 3340 c-18 -11 -41 -34 -52 -52 -19 -32 -20 -52 -20 -728 0
-676 1 -696 20 -728 58 -94 199 -95 255 -1 18 31 20 57 25 309 5 254 7 278 26
315 59 114 180 109 235 -10 17 -36 19 -69 19 -300 0 -251 1 -262 23 -305 53
-103 196 -108 257 -8 19 31 20 51 20 313 0 311 -5 351 -63 459 -96 180 -305
273 -494 220 l-23 -6 0 209 c0 197 -1 211 -22 253 -39 75 -135 103 -206 60z"/>
<path d="M2665 3331 c-18 -11 -169 -206 -375 -486 -190 -258 -350 -478 -357
-489 -21 -35 -16 -109 10 -147 44 -66 59 -69 370 -69 l277 0 0 -131 c0 -147
11 -184 63 -221 16 -12 50 -23 76 -25 61 -6 108 21 138 77 20 38 23 57 23 170
l0 127 38 7 c140 22 165 214 37 276 -23 11 -49 20 -58 20 -16 0 -17 31 -17
393 0 388 0 393 -22 437 -39 74 -135 103 -203 61z m-78 -888 c-3 -2 -52 -2
-111 -1 l-107 3 108 148 108 148 3 -147 c1 -81 1 -149 -1 -151z"/>
</g>
</svg>
