<?xml version="1.0" standalone="no"?>
<!DOCTYPE svg PUBLIC "-//W3C//DTD SVG 20010904//EN"
 "http://www.w3.org/TR/2001/REC-SVG-20010904/DTD/svg10.dtd">
<svg version="1.0" xmlns="http://www.w3.org/2000/svg"
 width="512.000000pt" height="512.000000pt" viewBox="0 0 512.000000 512.000000"
 preserveAspectRatio="xMidYMid meet">
<metadata>
Created by potrace 1.16, written by Peter Selinger 2001-2019
</metadata>
<g transform="translate(0.000000,512.000000) scale(0.100000,-0.100000)"
fill="#000000" stroke="none">
<path d="M573 3887 l-573 -572 0 -45 0 -45 268 -267 c262 -262 269 -268 308
-268 30 0 46 6 64 25 l24 26 69 -68 c101 -100 124 -138 152 -253 58 -232 161
-430 305 -584 l60 -63 -36 -69 c-34 -66 -36 -73 -32 -149 5 -91 27 -143 83
-200 48 -47 107 -76 171 -82 l54 -6 0 -41 c0 -120 122 -248 249 -263 l49 -5 5
-49 c16 -133 128 -237 267 -247 80 -5 131 8 195 50 45 30 57 33 130 34 117 2
189 38 244 120 l28 43 33 -24 c119 -87 297 -63 386 53 18 24 34 48 36 54 3 7
17 4 38 -8 52 -28 200 -27 255 3 92 49 146 141 146 246 l0 62 55 24 c98 43
158 137 158 251 0 43 -7 80 -20 110 l-20 45 84 95 c168 188 260 360 317 592
13 53 29 107 35 120 7 12 73 85 148 160 l136 137 33 -30 c24 -21 44 -29 70
-29 35 0 52 15 305 268 l268 268 0 44 0 45 -518 517 c-507 507 -518 518 -556
518 -38 0 -48 -9 -298 -257 -143 -142 -266 -271 -275 -287 -19 -37 -10 -72 30
-114 l32 -34 -72 -67 c-128 -121 -189 -134 -353 -75 -104 38 -106 38 -260 38
-152 0 -157 -1 -240 -33 -80 -31 -92 -33 -197 -31 -86 1 -128 -3 -187 -19 -97
-27 -177 -27 -230 -1 -23 11 -92 71 -155 134 l-114 114 22 27 c48 62 46 65
-252 362 -265 266 -273 273 -312 273 -39 0 -48 -8 -612 -573z m492 -497 l-490
-490 -185 185 -185 185 490 490 490 490 185 -185 185 -185 -490 -490z m3665
-225 l-185 -185 -435 435 -435 435 185 185 185 185 435 -435 435 -435 -185
-185z m-3006 387 c139 -135 188 -167 289 -188 76 -16 134 -13 227 11 l53 14
-260 -262 c-150 -151 -269 -279 -281 -302 -80 -159 -32 -348 112 -439 99 -64
214 -71 323 -21 44 20 90 58 200 168 l144 142 529 -530 c530 -530 530 -530
530 -572 0 -33 -6 -48 -31 -72 -41 -42 -91 -42 -145 -2 -21 16 -214 205 -429
420 -350 351 -393 391 -422 391 -17 0 -39 -3 -48 -6 -20 -8 -45 -56 -45 -86 0
-16 118 -141 439 -463 241 -242 446 -451 455 -465 48 -72 -26 -176 -111 -156
-19 5 -167 146 -448 426 -231 231 -432 424 -447 429 -60 22 -128 -36 -113 -98
4 -16 136 -157 361 -382 340 -342 354 -357 354 -393 0 -70 -60 -120 -130 -108
-16 3 -157 136 -411 388 -339 338 -389 384 -416 384 -61 0 -104 -60 -82 -117
5 -15 138 -156 295 -313 280 -282 284 -286 284 -327 0 -52 -45 -103 -91 -103
-28 0 -29 2 -29 45 0 131 -104 260 -225 280 -72 12 -75 14 -75 48 0 74 -79
190 -158 231 -20 10 -125 36 -147 36 -1 0 -5 25 -8 55 -14 141 -140 245 -293
245 l-61 0 -77 80 c-138 145 -221 298 -281 520 -20 74 -47 154 -61 178 -14 23
-65 84 -114 135 l-89 92 402 403 c221 221 404 402 406 402 3 0 59 -53 125
-118z m2268 -269 l328 -328 -144 -145 c-164 -164 -180 -190 -220 -352 -50
-202 -123 -342 -262 -501 -47 -53 -88 -97 -92 -97 -4 0 -120 113 -257 250
-246 246 -249 250 -215 250 63 0 153 29 178 56 26 30 28 70 6 102 -26 38 -56
43 -133 26 -57 -13 -79 -14 -127 -4 -104 22 -263 119 -363 224 l-34 35 46 50
c38 40 47 57 47 86 0 49 -36 85 -86 85 -36 0 -51 -13 -288 -249 -207 -205
-258 -251 -291 -260 -72 -19 -157 21 -185 89 -20 49 -8 122 28 167 16 21 158
164 314 318 242 240 293 286 353 317 157 81 284 88 470 23 102 -35 114 -37
204 -33 126 5 194 37 306 142 44 41 82 75 85 76 3 0 152 -147 332 -327z
m-2454 -1613 c128 -78 28 -274 -111 -217 -96 41 -99 181 -4 222 45 20 77 18
115 -5z m328 -321 c101 -95 -1 -259 -129 -206 -48 20 -72 60 -72 118 0 50 26
91 70 110 34 15 104 3 131 -22z m285 -292 c48 -32 68 -91 48 -142 -41 -108
-187 -108 -228 0 -13 32 -13 43 0 78 17 49 67 87 114 87 18 0 47 -10 66 -23z"/>
<path d="M471 3264 c-52 -66 5 -160 84 -140 63 16 88 101 42 144 -35 33 -99
30 -126 -4z"/>
<path d="M4605 3372 c-37 -7 -65 -43 -65 -81 1 -43 17 -66 54 -81 36 -13 72
-3 96 27 50 64 -5 150 -85 135z"/>
</g>
</svg>
