<?xml version="1.0" standalone="no"?>
<!DOCTYPE svg PUBLIC "-//W3C//DTD SVG 20010904//EN"
 "http://www.w3.org/TR/2001/REC-SVG-20010904/DTD/svg10.dtd">
<svg version="1.0" xmlns="http://www.w3.org/2000/svg"
 width="512.000000pt" height="512.000000pt" viewBox="0 0 512.000000 512.000000"
 preserveAspectRatio="xMidYMid meet">

<g transform="translate(0.000000,512.000000) scale(0.100000,-0.100000)"
fill="#000000" stroke="none">
<path d="M69 4837 c-91 -61 -89 -181 5 -251 27 -20 42 -21 489 -26 l461 -5
339 -1260 c186 -693 340 -1262 342 -1263 2 -2 44 5 93 17 89 21 103 21 1448
21 l1359 0 258 978 c142 537 258 988 257 1001 0 42 -41 100 -85 121 -41 20
-62 20 -1818 20 -977 0 -1777 2 -1777 4 0 2 -38 135 -85 297 -60 205 -93 301
-108 317 -49 53 -36 52 -610 52 l-534 0 -34 -23z"/>
<path d="M1861 1754 c-199 -53 -331 -226 -331 -432 0 -94 17 -157 64 -234 l35
-58 -38 -57 c-53 -81 -72 -136 -78 -223 -9 -130 29 -246 112 -338 242 -269
681 -166 780 182 17 59 17 199 0 254 l-7 22 752 0 752 0 -7 -22 c-4 -13 -9
-62 -12 -109 -8 -133 28 -238 114 -330 180 -192 472 -201 654 -19 179 178 185
448 14 638 -34 37 -71 64 -133 94 l-85 43 -1261 5 -1261 5 -33 23 c-91 65 -81
205 18 254 33 17 118 18 1343 18 1187 0 1312 2 1343 16 107 51 109 210 4 264
-39 20 -55 20 -1362 19 -1123 0 -1331 -3 -1377 -15z"/>
</g>
</svg>
