<?xml version="1.0" standalone="no"?>
<!DOCTYPE svg PUBLIC "-//W3C//DTD SVG 20010904//EN"
 "http://www.w3.org/TR/2001/REC-SVG-20010904/DTD/svg10.dtd">
<svg version="1.0" xmlns="http://www.w3.org/2000/svg"
 width="512.000000pt" height="512.000000pt" viewBox="0 0 512.000000 512.000000"
 preserveAspectRatio="xMidYMid meet">
<metadata>
Created by potrace 1.16, written by Peter Selinger 2001-2019
</metadata>
<g transform="translate(0.000000,512.000000) scale(0.100000,-0.100000)"
fill="#000000" stroke="none">
<path d="M2470 5074 c-67 -18 -140 -64 -175 -111 -15 -19 -146 -275 -290 -568
-253 -511 -265 -533 -297 -543 -18 -6 -287 -48 -598 -92 -642 -93 -644 -93
-730 -187 -93 -102 -114 -251 -55 -378 22 -47 91 -118 453 -471 235 -229 431
-427 436 -440 7 -18 -15 -171 -87 -591 -54 -313 -97 -594 -97 -625 0 -178 153
-328 333 -328 34 0 80 5 101 11 22 6 274 134 561 285 287 151 528 274 535 274
8 0 249 -123 535 -274 287 -151 539 -279 561 -285 214 -59 433 100 434 317 0
31 -43 312 -97 625 -71 419 -94 573 -87 591 5 13 201 211 436 440 469 458 473
462 485 588 9 98 -22 190 -87 261 -85 94 -89 94 -725 186 -308 45 -577 86
-598 92 l-37 10 -264 533 c-145 294 -276 550 -290 569 -37 49 -109 93 -181
112 -72 18 -103 18 -175 -1z m113 -275 c19 -9 82 -128 283 -537 143 -289 271
-543 286 -564 33 -45 118 -103 173 -117 23 -6 290 -47 595 -91 305 -44 565
-82 577 -85 30 -7 56 -48 48 -74 -3 -11 -196 -205 -428 -431 -480 -467 -487
-476 -495 -609 -3 -63 12 -170 92 -633 53 -306 96 -567 96 -579 0 -29 -28 -59
-55 -59 -12 0 -253 122 -536 270 -283 149 -536 277 -563 285 -63 19 -129 19
-192 0 -27 -8 -280 -136 -563 -285 -283 -148 -523 -270 -534 -270 -29 0 -57
29 -57 57 0 13 43 275 96 581 80 464 95 570 91 632 -7 128 -17 142 -321 440
-488 476 -606 595 -606 612 0 9 8 26 19 39 17 21 57 28 587 105 313 46 589 88
614 94 59 15 143 71 178 118 15 21 144 275 286 564 237 481 267 535 303 547 1
1 13 -4 26 -10z"/>
<path d="M979 4897 c-41 -27 -65 -87 -55 -138 6 -34 160 -256 200 -288 9 -8
41 -16 69 -19 43 -3 58 1 87 20 44 30 60 61 60 119 0 38 -7 57 -37 100 -76
111 -144 198 -165 213 -35 25 -118 21 -159 -7z"/>
<path d="M3990 4907 c-25 -12 -92 -96 -170 -211 -34 -51 -40 -67 -40 -113 0
-47 4 -58 34 -91 33 -35 37 -37 99 -37 56 0 69 4 92 25 31 29 164 212 182 249
27 58 3 139 -51 172 -36 22 -109 25 -146 6z"/>
<path d="M200 2105 c-114 -37 -140 -50 -167 -79 -28 -31 -33 -43 -33 -87 0
-85 49 -140 128 -141 55 -1 295 78 331 108 96 80 33 246 -91 243 -18 0 -94
-20 -168 -44z"/>
<path d="M4695 2138 c-92 -50 -109 -169 -34 -232 37 -31 275 -109 330 -108 79
1 129 56 129 141 0 42 -5 56 -31 86 -27 30 -50 41 -171 80 -143 46 -188 53
-223 33z"/>
<path d="M2516 550 c-15 -5 -37 -17 -48 -27 -42 -38 -48 -65 -48 -230 0 -173
8 -201 66 -239 35 -23 113 -23 148 0 58 38 66 66 66 241 0 141 -2 164 -20 192
-34 56 -102 82 -164 63z"/>
</g>
</svg>
