<?xml version="1.0" standalone="no"?>
<!DOCTYPE svg PUBLIC "-//W3C//DTD SVG 20010904//EN"
 "http://www.w3.org/TR/2001/REC-SVG-20010904/DTD/svg10.dtd">
<svg version="1.0" xmlns="http://www.w3.org/2000/svg"
 width="512.000000pt" height="512.000000pt" viewBox="0 0 512.000000 512.000000"
 preserveAspectRatio="xMidYMid meet">

<g transform="translate(0.000000,512.000000) scale(0.100000,-0.100000)"
fill="#fff" stroke="none">
<path d="M2335 4944 c-600 -81 -1107 -450 -1367 -994 -149 -312 -203 -703
-139 -991 129 -573 619 -1434 1423 -2501 98 -130 192 -248 209 -262 64 -55
153 -46 216 20 56 58 397 513 566 756 686 984 1048 1719 1073 2183 21 377
-125 822 -374 1135 -65 81 -215 231 -297 295 -369 290 -850 422 -1310 359z
m359 -959 c289 -61 506 -329 506 -625 0 -297 -218 -565 -510 -626 -94 -20
-229 -14 -320 15 -312 98 -503 425 -435 745 72 341 416 564 759 491z"/>
</g>
</svg>
